<svg width="110" height="12" viewBox="0 0 110 12" fill="none" xmlns="http://www.w3.org/2000/svg">
<path d="M6.522 6.156C6.582 6.152 6.636 6.174 6.684 6.222L7.044 6.606C6.816 6.87 6.536 7.076 6.204 7.224C5.876 7.368 5.48 7.44 5.016 7.44C4.624 7.44 4.266 7.372 3.942 7.236C3.622 7.1 3.346 6.91 3.114 6.666C2.886 6.422 2.708 6.132 2.58 5.796C2.456 5.46 2.394 5.092 2.394 4.692C2.394 4.288 2.462 3.918 2.598 3.582C2.734 3.242 2.924 2.952 3.168 2.712C3.412 2.468 3.7 2.28 4.032 2.148C4.368 2.012 4.732 1.944 5.124 1.944C5.56 1.944 5.928 2.012 6.228 2.148C6.532 2.28 6.798 2.458 7.026 2.682L6.75 3.072C6.73 3.096 6.704 3.12 6.672 3.144C6.64 3.168 6.602 3.18 6.558 3.18C6.502 3.18 6.442 3.158 6.378 3.114C6.318 3.07 6.238 3.022 6.138 2.97C6.038 2.914 5.91 2.864 5.754 2.82C5.602 2.772 5.41 2.748 5.178 2.748C4.894 2.748 4.64 2.794 4.416 2.886C4.192 2.974 4 3.102 3.84 3.27C3.68 3.438 3.558 3.642 3.474 3.882C3.39 4.122 3.348 4.392 3.348 4.692C3.348 5 3.39 5.276 3.474 5.52C3.562 5.76 3.682 5.962 3.834 6.126C3.986 6.29 4.166 6.416 4.374 6.504C4.586 6.588 4.816 6.63 5.064 6.63C5.272 6.63 5.446 6.614 5.586 6.582C5.726 6.55 5.848 6.512 5.952 6.468C6.06 6.42 6.156 6.368 6.24 6.312C6.328 6.256 6.422 6.204 6.522 6.156ZM0.606 4.704C0.606 4.3 0.658 3.912 0.762 3.54C0.866 3.164 1.014 2.814 1.206 2.49C1.398 2.162 1.626 1.866 1.89 1.602C2.158 1.334 2.454 1.104 2.778 0.912C3.102 0.72 3.45 0.572 3.822 0.468C4.194 0.364 4.582 0.312 4.986 0.312C5.39 0.312 5.778 0.364 6.15 0.468C6.526 0.572 6.876 0.72 7.2 0.912C7.524 1.104 7.82 1.334 8.088 1.602C8.356 1.866 8.584 2.162 8.772 2.49C8.964 2.814 9.112 3.164 9.216 3.54C9.32 3.912 9.372 4.3 9.372 4.704C9.372 5.104 9.32 5.492 9.216 5.868C9.112 6.24 8.964 6.588 8.772 6.912C8.584 7.236 8.356 7.532 8.088 7.8C7.82 8.064 7.524 8.292 7.2 8.484C6.876 8.676 6.526 8.824 6.15 8.928C5.778 9.032 5.39 9.084 4.986 9.084C4.582 9.084 4.194 9.032 3.822 8.928C3.45 8.824 3.102 8.676 2.778 8.484C2.454 8.292 2.158 8.064 1.89 7.8C1.626 7.532 1.398 7.236 1.206 6.912C1.014 6.588 0.866 6.24 0.762 5.868C0.658 5.496 0.606 5.108 0.606 4.704ZM1.212 4.704C1.212 5.06 1.256 5.402 1.344 5.73C1.432 6.058 1.556 6.366 1.716 6.654C1.88 6.938 2.076 7.196 2.304 7.428C2.536 7.66 2.79 7.86 3.066 8.028C3.346 8.192 3.648 8.32 3.972 8.412C4.296 8.5 4.634 8.544 4.986 8.544C5.338 8.544 5.676 8.5 6 8.412C6.328 8.32 6.632 8.192 6.912 8.028C7.196 7.86 7.452 7.66 7.68 7.428C7.912 7.196 8.11 6.938 8.274 6.654C8.438 6.366 8.564 6.058 8.652 5.73C8.744 5.402 8.79 5.06 8.79 4.704C8.79 4.168 8.69 3.666 8.49 3.198C8.294 2.726 8.024 2.316 7.68 1.968C7.34 1.616 6.938 1.34 6.474 1.14C6.01 0.936 5.514 0.834 4.986 0.834C4.634 0.834 4.296 0.88 3.972 0.972C3.648 1.064 3.346 1.194 3.066 1.362C2.79 1.526 2.536 1.726 2.304 1.962C2.076 2.198 1.88 2.46 1.716 2.748C1.556 3.032 1.432 3.34 1.344 3.672C1.256 4.004 1.212 4.348 1.212 4.704ZM18.3085 5.808L16.9585 2.31C16.9185 2.206 16.8765 2.086 16.8325 1.95C16.7885 1.81 16.7465 1.662 16.7065 1.506C16.6225 1.83 16.5365 2.1 16.4485 2.316L15.0985 5.808H18.3085ZM20.7325 9H19.8325C19.7285 9 19.6445 8.974 19.5805 8.922C19.5165 8.87 19.4685 8.804 19.4365 8.724L18.6325 6.648H14.7745L13.9705 8.724C13.9465 8.796 13.9005 8.86 13.8325 8.916C13.7645 8.972 13.6805 9 13.5805 9H12.6805L16.1185 0.401999H17.2945L20.7325 9ZM22.6922 0.162V9H21.6242V0.162H22.6922ZM25.5281 0.162V9H24.4601V0.162H25.5281ZM31.3444 4.14C31.5364 3.724 31.7724 3.4 32.0524 3.168C32.3324 2.932 32.6744 2.814 33.0784 2.814C33.2064 2.814 33.3284 2.828 33.4444 2.856C33.5644 2.884 33.6704 2.928 33.7624 2.988L33.6844 3.786C33.6604 3.886 33.6004 3.936 33.5044 3.936C33.4484 3.936 33.3664 3.924 33.2584 3.9C33.1504 3.876 33.0284 3.864 32.8924 3.864C32.7004 3.864 32.5284 3.892 32.3764 3.948C32.2284 4.004 32.0944 4.088 31.9744 4.2C31.8584 4.308 31.7524 4.444 31.6564 4.608C31.5644 4.768 31.4804 4.952 31.4044 5.16V9H30.3304V2.922H30.9424C31.0584 2.922 31.1384 2.944 31.1824 2.988C31.2264 3.032 31.2564 3.108 31.2724 3.216L31.3444 4.14ZM35.8295 2.922V9H34.7615V2.922H35.8295ZM36.0575 1.014C36.0575 1.118 36.0355 1.216 35.9915 1.308C35.9515 1.396 35.8955 1.476 35.8235 1.548C35.7555 1.616 35.6735 1.67 35.5775 1.71C35.4855 1.75 35.3875 1.77 35.2835 1.77C35.1795 1.77 35.0815 1.75 34.9895 1.71C34.9015 1.67 34.8235 1.616 34.7555 1.548C34.6875 1.476 34.6335 1.396 34.5935 1.308C34.5535 1.216 34.5335 1.118 34.5335 1.014C34.5335 0.909999 34.5535 0.811999 34.5935 0.719999C34.6335 0.624 34.6875 0.542 34.7555 0.473999C34.8235 0.402 34.9015 0.346 34.9895 0.305999C35.0815 0.265999 35.1795 0.245999 35.2835 0.245999C35.3875 0.245999 35.4855 0.265999 35.5775 0.305999C35.6735 0.346 35.7555 0.402 35.8235 0.473999C35.8955 0.542 35.9515 0.624 35.9915 0.719999C36.0355 0.811999 36.0575 0.909999 36.0575 1.014ZM39.7023 6.03C39.9183 6.03 40.1083 6 40.2723 5.94C40.4363 5.88 40.5743 5.796 40.6863 5.688C40.7983 5.58 40.8823 5.452 40.9383 5.304C40.9943 5.152 41.0223 4.986 41.0223 4.806C41.0223 4.434 40.9083 4.138 40.6803 3.918C40.4563 3.698 40.1303 3.588 39.7023 3.588C39.2703 3.588 38.9403 3.698 38.7123 3.918C38.4883 4.138 38.3763 4.434 38.3763 4.806C38.3763 4.986 38.4043 5.152 38.4603 5.304C38.5203 5.452 38.6063 5.58 38.7183 5.688C38.8303 5.796 38.9683 5.88 39.1323 5.94C39.2963 6 39.4863 6.03 39.7023 6.03ZM41.6283 9.33C41.6283 9.182 41.5863 9.062 41.5023 8.97C41.4183 8.878 41.3043 8.806 41.1603 8.754C41.0203 8.702 40.8563 8.666 40.6683 8.646C40.4803 8.622 40.2803 8.604 40.0683 8.592C39.8603 8.58 39.6483 8.568 39.4323 8.556C39.2163 8.544 39.0083 8.524 38.8083 8.496C38.5843 8.6 38.4003 8.732 38.2563 8.892C38.1163 9.048 38.0463 9.232 38.0463 9.444C38.0463 9.58 38.0803 9.706 38.1483 9.822C38.2203 9.942 38.3283 10.044 38.4723 10.128C38.6163 10.216 38.7963 10.284 39.0123 10.332C39.2323 10.384 39.4903 10.41 39.7863 10.41C40.0743 10.41 40.3323 10.384 40.5603 10.332C40.7883 10.28 40.9803 10.206 41.1363 10.11C41.2963 10.014 41.4183 9.9 41.5023 9.768C41.5863 9.636 41.6283 9.49 41.6283 9.33ZM42.7143 3.162V3.558C42.7143 3.69 42.6303 3.774 42.4623 3.81L41.7723 3.9C41.9083 4.164 41.9763 4.456 41.9763 4.776C41.9763 5.072 41.9183 5.342 41.8023 5.586C41.6903 5.826 41.5343 6.032 41.3343 6.204C41.1343 6.376 40.8943 6.508 40.6143 6.6C40.3343 6.692 40.0303 6.738 39.7023 6.738C39.4183 6.738 39.1503 6.704 38.8983 6.636C38.7703 6.716 38.6723 6.802 38.6043 6.894C38.5363 6.982 38.5023 7.072 38.5023 7.164C38.5023 7.308 38.5603 7.418 38.6763 7.494C38.7963 7.566 38.9523 7.618 39.1443 7.65C39.3363 7.682 39.5543 7.702 39.7983 7.71C40.0463 7.718 40.2983 7.732 40.5543 7.752C40.8143 7.768 41.0663 7.798 41.3103 7.842C41.5583 7.886 41.7783 7.958 41.9703 8.058C42.1623 8.158 42.3163 8.296 42.4323 8.472C42.5523 8.648 42.6123 8.876 42.6123 9.156C42.6123 9.416 42.5463 9.668 42.4143 9.912C42.2863 10.156 42.1003 10.372 41.8563 10.56C41.6123 10.752 41.3123 10.904 40.9563 11.016C40.6043 11.132 40.2063 11.19 39.7623 11.19C39.3183 11.19 38.9303 11.146 38.5983 11.058C38.2663 10.97 37.9903 10.852 37.7703 10.704C37.5503 10.556 37.3843 10.384 37.2723 10.188C37.1643 9.996 37.1103 9.794 37.1103 9.582C37.1103 9.282 37.2043 9.028 37.3923 8.82C37.5803 8.612 37.8383 8.446 38.1663 8.322C37.9863 8.242 37.8423 8.136 37.7343 8.004C37.6303 7.868 37.5783 7.686 37.5783 7.458C37.5783 7.37 37.5943 7.28 37.6263 7.188C37.6583 7.092 37.7063 6.998 37.7703 6.906C37.8383 6.81 37.9203 6.72 38.0163 6.636C38.1123 6.552 38.2243 6.478 38.3523 6.414C38.0523 6.246 37.8183 6.024 37.6503 5.748C37.4823 5.468 37.3983 5.144 37.3983 4.776C37.3983 4.48 37.4543 4.212 37.5663 3.972C37.6823 3.728 37.8423 3.522 38.0463 3.354C38.2503 3.182 38.4923 3.05 38.7723 2.958C39.0563 2.866 39.3663 2.82 39.7023 2.82C39.9663 2.82 40.2123 2.85 40.4403 2.91C40.6683 2.966 40.8763 3.05 41.0643 3.162H42.7143ZM44.8927 3.732C45.1527 3.456 45.4407 3.236 45.7567 3.072C46.0727 2.908 46.4367 2.826 46.8487 2.826C47.1807 2.826 47.4727 2.882 47.7247 2.994C47.9807 3.102 48.1927 3.258 48.3607 3.462C48.5327 3.662 48.6627 3.904 48.7507 4.188C48.8387 4.472 48.8827 4.786 48.8827 5.13V9H47.8087V5.13C47.8087 4.67 47.7027 4.314 47.4907 4.062C47.2827 3.806 46.9647 3.678 46.5367 3.678C46.2207 3.678 45.9247 3.754 45.6487 3.906C45.3767 4.058 45.1247 4.264 44.8927 4.524V9H43.8187V0.162H44.8927V3.732ZM52.294 9.096C51.814 9.096 51.444 8.962 51.184 8.694C50.928 8.426 50.8 8.04 50.8 7.536V3.816H50.068C50.004 3.816 49.95 3.798 49.906 3.762C49.862 3.722 49.84 3.662 49.84 3.582V3.156L50.836 3.03L51.082 1.152C51.094 1.092 51.12 1.044 51.16 1.008C51.204 0.968 51.26 0.948 51.328 0.948H51.868V3.042H53.626V3.816H51.868V7.464C51.868 7.72 51.93 7.91 52.054 8.034C52.178 8.158 52.338 8.22 52.534 8.22C52.646 8.22 52.742 8.206 52.822 8.178C52.906 8.146 52.978 8.112 53.038 8.076C53.098 8.04 53.148 8.008 53.188 7.98C53.232 7.948 53.27 7.932 53.302 7.932C53.358 7.932 53.408 7.966 53.452 8.034L53.764 8.544C53.58 8.716 53.358 8.852 53.098 8.952C52.838 9.048 52.57 9.096 52.294 9.096ZM58.2688 3.924C58.2208 4.012 58.1468 4.056 58.0468 4.056C57.9868 4.056 57.9188 4.034 57.8428 3.99C57.7668 3.946 57.6728 3.898 57.5608 3.846C57.4528 3.79 57.3228 3.74 57.1708 3.696C57.0188 3.648 56.8388 3.624 56.6308 3.624C56.4508 3.624 56.2888 3.648 56.1448 3.696C56.0008 3.74 55.8768 3.802 55.7728 3.882C55.6728 3.962 55.5948 4.056 55.5388 4.164C55.4868 4.268 55.4608 4.382 55.4608 4.506C55.4608 4.662 55.5048 4.792 55.5928 4.896C55.6848 5 55.8048 5.09 55.9528 5.166C56.1008 5.242 56.2688 5.31 56.4568 5.37C56.6448 5.426 56.8368 5.488 57.0328 5.556C57.2328 5.62 57.4268 5.692 57.6148 5.772C57.8028 5.852 57.9708 5.952 58.1188 6.072C58.2668 6.192 58.3848 6.34 58.4728 6.516C58.5648 6.688 58.6108 6.896 58.6108 7.14C58.6108 7.42 58.5608 7.68 58.4608 7.92C58.3608 8.156 58.2128 8.362 58.0168 8.538C57.8208 8.71 57.5808 8.846 57.2968 8.946C57.0128 9.046 56.6848 9.096 56.3128 9.096C55.8888 9.096 55.5048 9.028 55.1608 8.892C54.8168 8.752 54.5248 8.574 54.2848 8.358L54.5368 7.95C54.5688 7.898 54.6068 7.858 54.6508 7.83C54.6948 7.802 54.7508 7.788 54.8188 7.788C54.8908 7.788 54.9668 7.816 55.0468 7.872C55.1268 7.928 55.2228 7.99 55.3348 8.058C55.4508 8.126 55.5908 8.188 55.7548 8.244C55.9188 8.3 56.1228 8.328 56.3668 8.328C56.5748 8.328 56.7568 8.302 56.9128 8.25C57.0688 8.194 57.1988 8.12 57.3028 8.028C57.4068 7.936 57.4828 7.83 57.5308 7.71C57.5828 7.59 57.6088 7.462 57.6088 7.326C57.6088 7.158 57.5628 7.02 57.4708 6.912C57.3828 6.8 57.2648 6.706 57.1168 6.63C56.9688 6.55 56.7988 6.482 56.6068 6.426C56.4188 6.366 56.2248 6.304 56.0248 6.24C55.8288 6.176 55.6348 6.104 55.4428 6.024C55.2548 5.94 55.0868 5.836 54.9388 5.712C54.7908 5.588 54.6708 5.436 54.5788 5.256C54.4908 5.072 54.4468 4.85 54.4468 4.59C54.4468 4.358 54.4948 4.136 54.5908 3.924C54.6868 3.708 54.8268 3.52 55.0108 3.36C55.1948 3.196 55.4208 3.066 55.6888 2.97C55.9568 2.874 56.2628 2.826 56.6068 2.826C57.0068 2.826 57.3648 2.89 57.6808 3.018C58.0008 3.142 58.2768 3.314 58.5088 3.534L58.2688 3.924ZM64.0045 4.14C64.1965 3.724 64.4325 3.4 64.7125 3.168C64.9925 2.932 65.3345 2.814 65.7385 2.814C65.8665 2.814 65.9885 2.828 66.1045 2.856C66.2245 2.884 66.3305 2.928 66.4225 2.988L66.3445 3.786C66.3205 3.886 66.2605 3.936 66.1645 3.936C66.1085 3.936 66.0265 3.924 65.9185 3.9C65.8105 3.876 65.6885 3.864 65.5525 3.864C65.3605 3.864 65.1885 3.892 65.0365 3.948C64.8885 4.004 64.7545 4.088 64.6345 4.2C64.5185 4.308 64.4125 4.444 64.3165 4.608C64.2245 4.768 64.1405 4.952 64.0645 5.16V9H62.9905V2.922H63.6025C63.7185 2.922 63.7985 2.944 63.8425 2.988C63.8865 3.032 63.9165 3.108 63.9325 3.216L64.0045 4.14ZM71.1835 5.298C71.1835 5.05 71.1475 4.824 71.0755 4.62C71.0075 4.412 70.9055 4.234 70.7695 4.086C70.6375 3.934 70.4755 3.818 70.2835 3.738C70.0915 3.654 69.8735 3.612 69.6295 3.612C69.1175 3.612 68.7115 3.762 68.4115 4.062C68.1155 4.358 67.9315 4.77 67.8595 5.298H71.1835ZM72.0475 8.148C71.9155 8.308 71.7575 8.448 71.5735 8.568C71.3895 8.684 71.1915 8.78 70.9795 8.856C70.7715 8.932 70.5555 8.988 70.3315 9.024C70.1075 9.064 69.8855 9.084 69.6655 9.084C69.2455 9.084 68.8575 9.014 68.5015 8.874C68.1495 8.73 67.8435 8.522 67.5835 8.25C67.3275 7.974 67.1275 7.634 66.9835 7.23C66.8395 6.826 66.7675 6.362 66.7675 5.838C66.7675 5.414 66.8315 5.018 66.9595 4.65C67.0915 4.282 67.2795 3.964 67.5235 3.696C67.7675 3.424 68.0655 3.212 68.4175 3.06C68.7695 2.904 69.1655 2.826 69.6055 2.826C69.9695 2.826 70.3055 2.888 70.6135 3.012C70.9255 3.132 71.1935 3.308 71.4175 3.54C71.6455 3.768 71.8235 4.052 71.9515 4.392C72.0795 4.728 72.1435 5.112 72.1435 5.544C72.1435 5.712 72.1255 5.824 72.0895 5.88C72.0535 5.936 71.9855 5.964 71.8855 5.964H67.8235C67.8355 6.348 67.8875 6.682 67.9795 6.966C68.0755 7.25 68.2075 7.488 68.3755 7.68C68.5435 7.868 68.7435 8.01 68.9755 8.106C69.2075 8.198 69.4675 8.244 69.7555 8.244C70.0235 8.244 70.2535 8.214 70.4455 8.154C70.6415 8.09 70.8095 8.022 70.9495 7.95C71.0895 7.878 71.2055 7.812 71.2975 7.752C71.3935 7.688 71.4755 7.656 71.5435 7.656C71.6315 7.656 71.6995 7.69 71.7475 7.758L72.0475 8.148ZM76.9954 3.924C76.9474 4.012 76.8734 4.056 76.7734 4.056C76.7134 4.056 76.6454 4.034 76.5694 3.99C76.4934 3.946 76.3994 3.898 76.2874 3.846C76.1794 3.79 76.0494 3.74 75.8974 3.696C75.7454 3.648 75.5654 3.624 75.3574 3.624C75.1774 3.624 75.0154 3.648 74.8714 3.696C74.7274 3.74 74.6034 3.802 74.4994 3.882C74.3994 3.962 74.3214 4.056 74.2654 4.164C74.2134 4.268 74.1874 4.382 74.1874 4.506C74.1874 4.662 74.2314 4.792 74.3194 4.896C74.4114 5 74.5314 5.09 74.6794 5.166C74.8274 5.242 74.9954 5.31 75.1834 5.37C75.3714 5.426 75.5634 5.488 75.7594 5.556C75.9594 5.62 76.1534 5.692 76.3414 5.772C76.5294 5.852 76.6974 5.952 76.8454 6.072C76.9934 6.192 77.1114 6.34 77.1994 6.516C77.2914 6.688 77.3374 6.896 77.3374 7.14C77.3374 7.42 77.2874 7.68 77.1874 7.92C77.0874 8.156 76.9394 8.362 76.7434 8.538C76.5474 8.71 76.3074 8.846 76.0234 8.946C75.7394 9.046 75.4114 9.096 75.0394 9.096C74.6154 9.096 74.2314 9.028 73.8874 8.892C73.5434 8.752 73.2514 8.574 73.0114 8.358L73.2634 7.95C73.2954 7.898 73.3334 7.858 73.3774 7.83C73.4214 7.802 73.4774 7.788 73.5454 7.788C73.6174 7.788 73.6934 7.816 73.7734 7.872C73.8534 7.928 73.9494 7.99 74.0614 8.058C74.1774 8.126 74.3174 8.188 74.4814 8.244C74.6454 8.3 74.8494 8.328 75.0934 8.328C75.3014 8.328 75.4834 8.302 75.6394 8.25C75.7954 8.194 75.9254 8.12 76.0294 8.028C76.1334 7.936 76.2094 7.83 76.2574 7.71C76.3094 7.59 76.3354 7.462 76.3354 7.326C76.3354 7.158 76.2894 7.02 76.1974 6.912C76.1094 6.8 75.9914 6.706 75.8434 6.63C75.6954 6.55 75.5254 6.482 75.3334 6.426C75.1454 6.366 74.9514 6.304 74.7514 6.24C74.5554 6.176 74.3614 6.104 74.1694 6.024C73.9814 5.94 73.8134 5.836 73.6654 5.712C73.5174 5.588 73.3974 5.436 73.3054 5.256C73.2174 5.072 73.1734 4.85 73.1734 4.59C73.1734 4.358 73.2214 4.136 73.3174 3.924C73.4134 3.708 73.5534 3.52 73.7374 3.36C73.9214 3.196 74.1474 3.066 74.4154 2.97C74.6834 2.874 74.9894 2.826 75.3334 2.826C75.7334 2.826 76.0914 2.89 76.4074 3.018C76.7274 3.142 77.0034 3.314 77.2354 3.534L76.9954 3.924ZM82.7148 5.298C82.7148 5.05 82.6788 4.824 82.6068 4.62C82.5388 4.412 82.4368 4.234 82.3008 4.086C82.1688 3.934 82.0068 3.818 81.8148 3.738C81.6228 3.654 81.4048 3.612 81.1608 3.612C80.6488 3.612 80.2428 3.762 79.9428 4.062C79.6468 4.358 79.4628 4.77 79.3908 5.298H82.7148ZM83.5788 8.148C83.4468 8.308 83.2888 8.448 83.1048 8.568C82.9208 8.684 82.7228 8.78 82.5108 8.856C82.3028 8.932 82.0868 8.988 81.8628 9.024C81.6388 9.064 81.4168 9.084 81.1968 9.084C80.7768 9.084 80.3888 9.014 80.0328 8.874C79.6808 8.73 79.3748 8.522 79.1148 8.25C78.8588 7.974 78.6588 7.634 78.5148 7.23C78.3708 6.826 78.2988 6.362 78.2988 5.838C78.2988 5.414 78.3628 5.018 78.4908 4.65C78.6228 4.282 78.8108 3.964 79.0548 3.696C79.2988 3.424 79.5968 3.212 79.9488 3.06C80.3008 2.904 80.6968 2.826 81.1368 2.826C81.5008 2.826 81.8368 2.888 82.1448 3.012C82.4568 3.132 82.7248 3.308 82.9488 3.54C83.1768 3.768 83.3548 4.052 83.4828 4.392C83.6108 4.728 83.6748 5.112 83.6748 5.544C83.6748 5.712 83.6568 5.824 83.6208 5.88C83.5848 5.936 83.5168 5.964 83.4168 5.964H79.3548C79.3668 6.348 79.4188 6.682 79.5108 6.966C79.6068 7.25 79.7388 7.488 79.9068 7.68C80.0748 7.868 80.2748 8.01 80.5068 8.106C80.7388 8.198 80.9988 8.244 81.2868 8.244C81.5548 8.244 81.7848 8.214 81.9768 8.154C82.1728 8.09 82.3408 8.022 82.4808 7.95C82.6208 7.878 82.7368 7.812 82.8288 7.752C82.9248 7.688 83.0068 7.656 83.0748 7.656C83.1628 7.656 83.2308 7.69 83.2788 7.758L83.5788 8.148ZM86.0006 4.14C86.1926 3.724 86.4286 3.4 86.7086 3.168C86.9886 2.932 87.3306 2.814 87.7346 2.814C87.8626 2.814 87.9846 2.828 88.1006 2.856C88.2206 2.884 88.3266 2.928 88.4186 2.988L88.3406 3.786C88.3166 3.886 88.2566 3.936 88.1606 3.936C88.1046 3.936 88.0226 3.924 87.9146 3.9C87.8066 3.876 87.6846 3.864 87.5486 3.864C87.3566 3.864 87.1846 3.892 87.0326 3.948C86.8846 4.004 86.7506 4.088 86.6306 4.2C86.5146 4.308 86.4086 4.444 86.3126 4.608C86.2206 4.768 86.1366 4.952 86.0606 5.16V9H84.9866V2.922H85.5986C85.7146 2.922 85.7946 2.944 85.8386 2.988C85.8826 3.032 85.9126 3.108 85.9286 3.216L86.0006 4.14ZM94.5657 2.922L92.0877 9H91.1277L88.6497 2.922H89.5197C89.6077 2.922 89.6797 2.944 89.7357 2.988C89.7917 3.032 89.8297 3.084 89.8497 3.144L91.3917 7.056C91.4397 7.204 91.4817 7.348 91.5177 7.488C91.5537 7.628 91.5877 7.768 91.6197 7.908C91.6517 7.768 91.6857 7.628 91.7217 7.488C91.7577 7.348 91.8017 7.204 91.8537 7.056L93.4137 3.144C93.4377 3.08 93.4777 3.028 93.5337 2.988C93.5897 2.944 93.6557 2.922 93.7317 2.922H94.5657ZM99.4492 5.298C99.4492 5.05 99.4132 4.824 99.3412 4.62C99.2732 4.412 99.1712 4.234 99.0352 4.086C98.9032 3.934 98.7412 3.818 98.5492 3.738C98.3572 3.654 98.1392 3.612 97.8952 3.612C97.3832 3.612 96.9772 3.762 96.6772 4.062C96.3812 4.358 96.1972 4.77 96.1252 5.298H99.4492ZM100.313 8.148C100.181 8.308 100.023 8.448 99.8392 8.568C99.6552 8.684 99.4572 8.78 99.2452 8.856C99.0372 8.932 98.8212 8.988 98.5972 9.024C98.3732 9.064 98.1512 9.084 97.9312 9.084C97.5112 9.084 97.1232 9.014 96.7672 8.874C96.4152 8.73 96.1092 8.522 95.8492 8.25C95.5932 7.974 95.3932 7.634 95.2492 7.23C95.1052 6.826 95.0332 6.362 95.0332 5.838C95.0332 5.414 95.0972 5.018 95.2252 4.65C95.3572 4.282 95.5452 3.964 95.7892 3.696C96.0332 3.424 96.3312 3.212 96.6832 3.06C97.0352 2.904 97.4312 2.826 97.8712 2.826C98.2352 2.826 98.5712 2.888 98.8792 3.012C99.1912 3.132 99.4592 3.308 99.6832 3.54C99.9112 3.768 100.089 4.052 100.217 4.392C100.345 4.728 100.409 5.112 100.409 5.544C100.409 5.712 100.391 5.824 100.355 5.88C100.319 5.936 100.251 5.964 100.151 5.964H96.0892C96.1012 6.348 96.1532 6.682 96.2452 6.966C96.3412 7.25 96.4732 7.488 96.6412 7.68C96.8092 7.868 97.0092 8.01 97.2412 8.106C97.4732 8.198 97.7332 8.244 98.0212 8.244C98.2892 8.244 98.5192 8.214 98.7112 8.154C98.9072 8.09 99.0752 8.022 99.2152 7.95C99.3552 7.878 99.4712 7.812 99.5632 7.752C99.6592 7.688 99.7412 7.656 99.8092 7.656C99.8972 7.656 99.9652 7.69 100.013 7.758L100.313 8.148ZM105.681 4.368C105.481 4.1 105.265 3.914 105.033 3.81C104.801 3.702 104.541 3.648 104.253 3.648C103.689 3.648 103.255 3.85 102.951 4.254C102.647 4.658 102.495 5.234 102.495 5.982C102.495 6.378 102.529 6.718 102.597 7.002C102.665 7.282 102.765 7.514 102.897 7.698C103.029 7.878 103.191 8.01 103.383 8.094C103.575 8.178 103.793 8.22 104.037 8.22C104.389 8.22 104.695 8.14 104.955 7.98C105.219 7.82 105.461 7.594 105.681 7.302V4.368ZM106.749 0.162V9H106.113C105.961 9 105.865 8.926 105.825 8.778L105.729 8.04C105.469 8.352 105.173 8.604 104.841 8.796C104.509 8.988 104.125 9.084 103.689 9.084C103.341 9.084 103.025 9.018 102.741 8.886C102.457 8.75 102.215 8.552 102.015 8.292C101.815 8.032 101.661 7.708 101.553 7.32C101.445 6.932 101.391 6.486 101.391 5.982C101.391 5.534 101.451 5.118 101.571 4.734C101.691 4.346 101.863 4.01 102.087 3.726C102.311 3.442 102.585 3.22 102.909 3.06C103.237 2.896 103.605 2.814 104.013 2.814C104.385 2.814 104.703 2.878 104.967 3.006C105.235 3.13 105.473 3.304 105.681 3.528V0.162H106.749ZM108.256 8.34C108.256 8.236 108.274 8.138 108.31 8.046C108.35 7.954 108.402 7.874 108.466 7.806C108.534 7.738 108.614 7.684 108.706 7.644C108.798 7.604 108.896 7.584 109 7.584C109.104 7.584 109.202 7.604 109.294 7.644C109.386 7.684 109.466 7.738 109.534 7.806C109.602 7.874 109.656 7.954 109.696 8.046C109.736 8.138 109.756 8.236 109.756 8.34C109.756 8.448 109.736 8.548 109.696 8.64C109.656 8.728 109.602 8.806 109.534 8.874C109.466 8.942 109.386 8.994 109.294 9.03C109.202 9.07 109.104 9.09 109 9.09C108.896 9.09 108.798 9.07 108.706 9.03C108.614 8.994 108.534 8.942 108.466 8.874C108.402 8.806 108.35 8.728 108.31 8.64C108.274 8.548 108.256 8.448 108.256 8.34Z" fill="white"/>
</svg>
